<svg xmlns="http://www.w3.org/2000/svg" width="42" height="42" viewBox="-1.972 0 61.92 62.203" xml:space="preserve"><path fill="none" d="M31.172 4.819c-14.499 0-26.291 11.792-26.291 26.289 0 14.498 11.792 26.292 26.291 26.292 7.217 0 13.763-2.928 18.519-7.653H35.965V15.609h16.394c-4.79-6.527-12.488-10.79-21.187-10.79z"/><path fill="#F27521" d="M31.172 57.398c-14.499 0-26.291-11.795-26.291-26.292 0-14.497 11.792-26.288 26.291-26.288 8.699 0 16.397 4.263 21.187 10.791h5.617C52.606 6.358 42.615.109 31.172.109c-17.094 0-31 13.906-31 30.998 0 17.098 13.905 31.001 31 31.001 10.092 0 19.047-4.871 24.712-12.363h-6.193c-4.756 4.728-11.302 7.653-18.519 7.653z"/><path fill="#0C0C0C" d="M42.822 42.021v-13.66c0-1.673-.357-2.929-1.073-3.765-.716-.836-1.827-1.255-3.334-1.255-1.98 0-3.442.568-4.388 1.705-.945 1.137-1.418 2.887-1.418 5.25v11.726h-3.181V28.361c0-1.673-.357-2.929-1.073-3.765-.716-.836-1.833-1.255-3.353-1.255-1.993 0-3.452.597-4.378 1.791-.926 1.195-1.389 3.152-1.389 5.873v11.017h-3.181v-21h2.587l.517 2.874h.153c.601-1.021 1.447-1.82 2.539-2.395s2.315-.862 3.669-.862c3.283 0 5.429 1.188 6.438 3.563h.153c.625-1.098 1.533-1.967 2.721-2.605 1.188-.638 2.542-.958 4.062-.958 2.376 0 4.154.61 5.336 1.83 1.182 1.22 1.772 3.171 1.772 5.854v13.7h-3.179v-.002z"/></svg>