<svg xmlns="http://www.w3.org/2000/svg" width="150" height="50" viewBox="0 0 177 60"><path fill="#F27521" d="M30.068 55.366c-13.986 0-25.36-11.377-25.36-25.36 0-13.984 11.374-25.358 25.36-25.358 8.39 0 15.816 4.112 20.437 10.41h5.418C50.743 6.133 41.106.105 30.068.105 13.579.106.166 13.52.166 30.006.166 46.5 13.578 59.91 30.068 59.91c9.735 0 18.372-4.7 23.837-11.926H47.93c-4.587 4.56-10.902 7.382-17.863 7.382Z"/><path fill="#0C0C0C" d="M70.775 25.43c0 3.137-1.07 5.55-3.21 7.239-2.142 1.688-5.205 2.533-9.188 2.533H54.73v12.186h-3.602V16.402h8.033c7.743 0 11.614 3.01 11.614 9.028ZM54.73 32.106h3.244c3.193 0 5.503-.515 6.93-1.547 1.427-1.032 2.14-2.684 2.14-4.96 0-2.049-.671-3.575-2.013-4.578-1.341-1.003-3.434-1.505-6.273-1.505H54.73v12.59Zm42.05 3.645c0 3.788-.952 6.744-2.861 8.87-1.907 2.127-4.543 3.19-7.905 3.19-2.077 0-3.921-.487-5.532-1.463-1.61-.974-2.854-2.374-3.73-4.196-.876-1.824-1.314-3.956-1.314-6.402 0-3.787.947-6.735 2.84-8.848 1.893-2.112 4.522-3.168 7.884-3.168 3.25 0 5.832 1.08 7.747 3.242 1.915 2.163 2.872 5.089 2.872 8.775Zm-17.697 0c0 2.967.594 5.23 1.781 6.782 1.186 1.555 2.932 2.333 5.235 2.333 2.302 0 4.051-.775 5.245-2.321 1.193-1.547 1.79-3.811 1.79-6.794 0-2.952-.597-5.195-1.79-6.729-1.194-1.532-2.956-2.3-5.288-2.3-2.303 0-4.04.757-5.213 2.269-1.173 1.511-1.76 3.765-1.76 6.76Zm39.761 11.637V32.361c0-1.893-.431-3.306-1.293-4.239-.862-.932-2.211-1.398-4.047-1.398-2.431 0-4.211.657-5.341 1.97-1.131 1.314-1.696 3.484-1.696 6.508v12.186h-3.518V24.16h2.862l.572 3.18h.17c.72-1.146 1.73-2.031 3.031-2.661 1.3-.628 2.749-.943 4.345-.943 2.797 0 4.903.675 6.316 2.024 1.413 1.35 2.119 3.507 2.119 6.475v15.154h-3.52Zm10.449-29.524c0-.805.198-1.395.593-1.769.396-.374.89-.562 1.484-.562.565 0 1.052.19 1.462.572.41.38.615.967.615 1.76 0 .791-.205 1.38-.615 1.768a2.05 2.05 0 0 1-1.462.583c-.594 0-1.088-.194-1.484-.583-.395-.388-.593-.978-.593-1.769Zm3.815 29.524h-3.518V24.16h3.518v23.23Zm16.744.424c-3.362 0-5.967-1.035-7.81-3.105-1.844-2.07-2.767-4.999-2.767-8.786 0-3.884.937-6.888 2.809-9.007 1.872-2.12 4.539-3.18 8.001-3.18 1.116 0 2.232.121 3.349.361s1.992.523 2.628.848l-1.08 2.988a16.682 16.682 0 0 0-2.544-.773c-.918-.206-1.731-.308-2.436-.308-4.721 0-7.08 3.01-7.08 9.03 0 2.854.576 5.043 1.727 6.57 1.152 1.525 2.858 2.288 5.119 2.288 1.936 0 3.92-.416 5.955-1.25v3.115c-1.555.806-3.512 1.209-5.871 1.209Zm26.366-6.76c0 2.16-.807 3.83-2.417 5.002-1.611 1.173-3.872 1.758-6.782 1.758-3.08 0-5.483-.487-7.207-1.463v-3.263a17.42 17.42 0 0 0 3.593 1.335 15 15 0 0 0 3.699.487c1.836 0 3.249-.293 4.239-.879.989-.586 1.484-1.48 1.484-2.681 0-.904-.392-1.678-1.176-2.32-.785-.643-2.314-1.402-4.589-2.278-2.163-.806-3.699-1.508-4.61-2.11-.911-.6-1.589-1.282-2.034-2.045-.446-.763-.668-1.674-.668-2.733 0-1.894.77-3.388 2.312-4.483 1.539-1.095 3.652-1.643 6.336-1.643 2.501 0 4.945.509 7.334 1.526l-1.251 2.861c-2.331-.96-4.443-1.44-6.337-1.44-1.667 0-2.924.26-3.772.784-.848.522-1.272 1.243-1.272 2.161 0 .622.16 1.152.477 1.59.318.437.83.854 1.538 1.25.705.395 2.062.968 4.069 1.717 2.754 1.003 4.617 2.013 5.584 3.03.966 1.017 1.45 2.296 1.45 3.837Zm-134.913-.518V27.357c0-1.614-.344-2.826-1.035-3.632-.69-.806-1.762-1.21-3.216-1.21-1.91 0-3.32.547-4.232 1.644-.912 1.097-1.368 2.785-1.368 5.064v11.31h-3.068V27.357c0-1.613-.345-2.825-1.035-3.631-.69-.806-1.768-1.21-3.234-1.21-1.923 0-3.33.575-4.223 1.727-.894 1.153-1.34 3.04-1.34 5.665v10.627h-3.068V20.278h2.495l.498 2.772h.148c.58-.985 1.396-1.756 2.45-2.31 1.052-.555 2.232-.832 3.538-.832 3.167 0 5.237 1.146 6.21 3.437h.148c.603-1.06 1.479-1.897 2.624-2.513 1.146-.615 2.452-.924 3.919-.924 2.291 0 4.007.588 5.147 1.765 1.14 1.177 1.709 3.059 1.709 5.647v13.215h-3.067v-.001Z"/><path fill="#010101" d="m60.601 58.07-.098-.672h-.031c-.214.274-.433.467-.66.581-.225.114-.491.17-.799.17-.417 0-.741-.105-.973-.32-.231-.213-.348-.509-.348-.887 0-.414.172-.737.518-.965.345-.23.845-.35 1.499-.364l.809-.023v-.282c0-.404-.082-.709-.246-.914-.164-.207-.428-.309-.793-.309-.393 0-.801.11-1.224.33l-.145-.337c.467-.22.928-.33 1.385-.33.466 0 .815.122 1.045.364.23.242.346.621.346 1.134v2.827h-.285v-.002Zm-1.564-.273c.454 0 .812-.13 1.073-.388.261-.26.393-.62.393-1.081v-.419l-.743.031c-.597.029-1.023.123-1.276.28-.254.157-.381.403-.381.737 0 .265.08.472.244.62.163.147.393.22.69.22Zm4.923-3.975v2.753c0 .426.09.738.27.931.18.194.459.292.836.292.505 0 .878-.128 1.116-.382.238-.255.358-.671.358-1.247v-2.346h.383v4.249h-.328l-.07-.587H66.5c-.276.444-.767.665-1.474.665-.966 0-1.45-.517-1.45-1.552v-2.775h.383v-.001Zm6.868 3.984c.245 0 .46-.02.642-.063v.312a2.046 2.046 0 0 1-.65.095c-.374 0-.651-.1-.83-.302-.178-.2-.267-.515-.267-.945v-2.745h-.63v-.226l.629-.177.196-.961h.2v1.028h1.247v.336h-1.247v2.69c0 .326.057.567.171.723.115.156.294.235.54.235Zm6.436-1.866c0 .694-.168 1.235-.503 1.625-.337.39-.801.584-1.392.584-.374 0-.702-.09-.985-.27a1.728 1.728 0 0 1-.653-.774 2.813 2.813 0 0 1-.227-1.165c0-.694.168-1.233.504-1.62.336-.387.797-.581 1.384-.581.583 0 1.042.196 1.373.587.333.394.5.931.5 1.614Zm-3.354 0c0 .584.129 1.04.385 1.367.257.327.62.49 1.09.49.468 0 .83-.163 1.088-.49.257-.327.385-.783.385-1.367 0-.585-.13-1.04-.389-1.364-.26-.323-.623-.485-1.093-.485s-.83.161-1.085.483c-.254.322-.38.778-.38 1.366Zm11.2 2.13v-2.787c0-.415-.08-.717-.242-.907-.161-.19-.409-.285-.743-.285-.435 0-.757.12-.965.36-.209.24-.313.616-.313 1.13v2.49h-.394v-2.904c0-.717-.328-1.076-.985-1.076-.446 0-.77.13-.973.389-.204.26-.305.674-.305 1.245v2.346h-.387v-4.25h.32l.082.584h.023a1.22 1.22 0 0 1 .501-.492 1.49 1.49 0 0 1 .716-.173c.67 0 1.1.252 1.29.754h.015c.138-.243.323-.428.557-.56a1.61 1.61 0 0 1 .796-.194c.463 0 .811.123 1.044.371.231.248.347.642.347 1.18v2.78h-.384Zm5.7 0-.097-.672h-.031c-.215.274-.434.467-.66.581-.224.114-.491.17-.799.17-.417 0-.742-.105-.973-.32-.232-.213-.348-.509-.348-.887 0-.414.173-.737.518-.965.345-.23.846-.35 1.5-.364l.809-.023v-.282c0-.404-.082-.709-.246-.914-.165-.207-.428-.309-.794-.309-.394 0-.802.11-1.224.33l-.144-.337c.466-.22.928-.33 1.384-.33.466 0 .816.122 1.046.364.23.242.345.621.345 1.134v2.827h-.285v-.002Zm-1.564-.273c.455 0 .812-.13 1.073-.388.262-.26.393-.62.393-1.081v-.419l-.743.031c-.597.029-1.023.123-1.276.28-.254.157-.382.403-.382.737 0 .265.082.472.245.62.163.148.394.22.69.22Zm5.708.009c.245 0 .459-.02.641-.063v.312a2.045 2.045 0 0 1-.649.095c-.375 0-.652-.1-.83-.302-.179-.2-.268-.515-.268-.945v-2.745h-.629v-.226l.63-.177.194-.961h.2v1.028h1.247v.336h-1.247v2.69c0 .326.058.567.172.723.114.156.295.235.539.235Zm2.866-5.165c0-.25.082-.376.247-.376.08 0 .143.033.19.098a.48.48 0 0 1 .068.278c0 .117-.023.21-.069.277a.217.217 0 0 1-.189.101c-.165.001-.247-.125-.247-.378Zm.442 5.43h-.387v-4.25h.387v4.25Zm6.299-2.131c0 .694-.168 1.235-.504 1.625-.336.39-.8.584-1.392.584a1.8 1.8 0 0 1-.984-.27 1.715 1.715 0 0 1-.653-.774 2.804 2.804 0 0 1-.227-1.165c0-.694.168-1.233.503-1.62.336-.388.798-.581 1.385-.581.583 0 1.041.196 1.374.587.333.394.498.931.498 1.614Zm-3.354 0c0 .584.129 1.04.385 1.367.257.327.62.49 1.089.49s.831-.163 1.089-.49c.256-.327.385-.783.385-1.367 0-.585-.13-1.04-.389-1.364-.26-.323-.623-.485-1.093-.485s-.83.161-1.085.483c-.255.322-.381.778-.381 1.366Zm8.855 2.13v-2.755c0-.426-.09-.738-.269-.933-.181-.194-.459-.291-.836-.291-.509 0-.881.13-1.116.385-.237.257-.354.673-.354 1.249v2.346h-.387v-4.25h.329l.074.583h.023c.276-.442.767-.663 1.473-.663.965 0 1.447.517 1.447 1.55v2.78h-.384Zm11.869 0v-2.787c0-.415-.081-.717-.242-.907-.162-.19-.41-.285-.744-.285-.435 0-.757.12-.965.36-.209.24-.313.616-.313 1.13v2.49h-.394v-2.904c0-.717-.329-1.076-.985-1.076-.446 0-.77.13-.973.389-.204.26-.305.674-.305 1.245v2.346h-.387v-4.25h.321l.082.584h.023c.117-.212.284-.375.501-.492a1.49 1.49 0 0 1 .715-.173c.669 0 1.1.252 1.29.754h.016c.139-.243.324-.428.557-.56.233-.13.499-.194.795-.194.464 0 .812.123 1.044.371.232.248.348.642.348 1.18v2.78h-.384Zm5.7 0-.098-.672h-.031c-.215.274-.433.467-.659.581-.225.114-.492.17-.8.17-.417 0-.742-.105-.973-.32-.232-.213-.347-.509-.347-.887 0-.414.172-.737.518-.965.344-.23.845-.35 1.499-.364l.809-.023v-.282c0-.404-.082-.709-.246-.914-.165-.207-.428-.309-.794-.309-.393 0-.801.11-1.224.33l-.144-.337c.466-.22.928-.33 1.384-.33.466 0 .816.122 1.046.364.231.242.345.621.345 1.134v2.827h-.285v-.002Zm-1.564-.273c.455 0 .812-.13 1.073-.388.262-.26.393-.62.393-1.081v-.419l-.743.031c-.597.029-1.023.123-1.276.28-.254.157-.382.403-.382.737 0 .265.082.472.245.62.163.148.394.22.69.22Zm6.143-4.057c.306 0 .574.056.797.168.224.112.425.303.602.575h.023a19.81 19.81 0 0 1-.023-.966v-1.528h.382v6.083h-.253l-.099-.65h-.031c-.323.486-.787.728-1.392.728-.585 0-1.034-.182-1.344-.547-.311-.365-.465-.897-.465-1.594 0-.736.153-1.298.462-1.686.308-.39.755-.583 1.341-.583Zm0 .351c-.463 0-.813.163-1.046.489-.233.326-.35.799-.35 1.42 0 1.204.468 1.806 1.403 1.806.48 0 .832-.14 1.057-.42.224-.278.336-.739.336-1.38v-.066c0-.657-.11-1.128-.331-1.417-.22-.288-.576-.432-1.069-.432Zm6.286 4.058c-.618 0-1.1-.19-1.444-.571-.345-.381-.518-.914-.518-1.598 0-.678.167-1.221.501-1.629.333-.407.783-.611 1.348-.611.501 0 .895.174 1.185.524.289.349.434.823.434 1.423V56h-3.062c.006.583.141 1.028.409 1.337.267.306.65.46 1.147.46.242 0 .456-.015.639-.05a3.81 3.81 0 0 0 .698-.22v.353a3.149 3.149 0 0 1-.664.213 3.696 3.696 0 0 1-.673.056Zm-.113-4.066c-.41 0-.738.135-.985.405-.248.27-.391.66-.434 1.167h2.628c0-.493-.106-.877-.321-1.155-.214-.278-.511-.417-.888-.417Zm10.227 2.882c0 .381-.143.673-.433.877-.289.205-.7.307-1.23.307-.57 0-1.02-.088-1.353-.261v-.42c.427.215.878.321 1.353.321.419 0 .737-.07.955-.21.217-.139.327-.324.327-.556a.68.68 0 0 0-.261-.54c-.174-.146-.459-.29-.855-.43-.424-.153-.723-.286-.895-.396a1.207 1.207 0 0 1-.388-.376.939.939 0 0 1-.132-.51c0-.317.134-.57.401-.754.267-.184.64-.277 1.12-.277.459 0 .894.086 1.306.258l-.144.352c-.418-.172-.805-.259-1.161-.259-.347 0-.623.058-.825.173-.203.114-.304.273-.304.476 0 .221.078.398.236.533.158.133.465.28.924.445.383.138.663.262.837.373a1.2 1.2 0 0 1 .392.379c.087.14.13.304.13.495Zm2.402-4.324c0-.25.082-.376.247-.376a.22.22 0 0 1 .189.098.475.475 0 0 1 .069.278c0 .117-.023.21-.069.277a.217.217 0 0 1-.189.101c-.165.001-.247-.125-.247-.378Zm.442 5.43h-.387v-4.25h.387v4.25Zm8.092-.001v-2.787c0-.415-.081-.717-.242-.907-.162-.19-.41-.285-.744-.285-.435 0-.757.12-.965.36-.209.24-.313.616-.313 1.13v2.49h-.394v-2.904c0-.717-.329-1.076-.985-1.076-.446 0-.77.13-.973.389-.204.26-.305.674-.305 1.245v2.346h-.388v-4.25h.321l.082.584h.023c.117-.212.284-.375.501-.492a1.49 1.49 0 0 1 .715-.173c.669 0 1.1.252 1.29.754h.016c.139-.243.324-.428.557-.56.233-.13.499-.194.795-.194.464 0 .812.123 1.044.371.232.248.348.642.348 1.18v2.78h-.383Zm4.938.079c-.654 0-1.132-.245-1.431-.735h-.027l.013.328c.01.193.015.404.015.634v1.618h-.387v-6.172h.329l.075.606h.023c.291-.46.758-.688 1.398-.688.574 0 1.011.188 1.312.564.301.377.452.925.452 1.645 0 .698-.159 1.24-.475 1.624-.316.385-.749.576-1.297.576Zm-.007-.343c.435 0 .772-.162 1.011-.486.238-.323.357-.775.357-1.356 0-1.248-.451-1.872-1.353-1.872-.494 0-.858.137-1.091.409-.231.272-.347.716-.347 1.331v.125c0 .664.111 1.14.335 1.423.222.283.584.426 1.088.426Zm4.703.264h-.387v-6.082h.387v6.083Zm4.5.079c-.618 0-1.1-.19-1.444-.571-.345-.381-.518-.914-.518-1.598 0-.678.167-1.221.501-1.629.334-.407.783-.611 1.348-.611.501 0 .895.174 1.185.524.289.349.434.823.434 1.423V56h-3.062c.006.583.141 1.028.409 1.337.267.306.65.46 1.147.46.242 0 .456-.015.64-.05.183-.033.416-.106.697-.22v.353a3.149 3.149 0 0 1-.664.213 3.696 3.696 0 0 1-.673.056Zm-.114-4.066c-.41 0-.738.135-.985.405s-.391.66-.434 1.167h2.628c0-.493-.106-.877-.32-1.155-.214-.278-.511-.417-.889-.417Z"/></svg>